<svg xmlns="http://www.w3.org/2000/svg" viewBox="0 0 32 32"><defs><style>.cls-1{fill:#b143ff;}.cls-2{fill:#ffec00;}</style></defs><g id="圖層_2" data-name="圖層 2"><g id="圖層_2-2" data-name="圖層 2"><rect class="cls-1" width="32" height="32"/><polygon class="cls-2" points="25.18 11.65 24.61 14.08 28.43 14.08 29 11.65 25.18 11.65"/><polygon class="cls-2" points="23.92 17.15 27.74 17.15 28.31 14.72 24.49 14.72 23.92 17.15"/><path class="cls-2" d="M23.36,14.3,24,11.65H15.71l-2.24,9.49L11.6,18.83h.25l1.58-1.48,1.34-5.7H5.31L3,21.48H6.44l.76-3.24,2.63,3.25H21.67l.63-2.65H17.46l.22-.94h4.84l.62-2.65H18.3l.22-.94ZM7.69,16.18l.44-1.88h2.58L10.09,17l-.63-.78Z"/></g></g></svg>