<svg xmlns="http://www.w3.org/2000/svg" viewBox="0 0 724.49 74.07"><defs><style>.cls-1{fill:none;stroke:#ffec00;stroke-miterlimit:10;stroke-width:2.18px;}</style></defs><g id="圖層_2" data-name="圖層 2"><g id="圖層_1-2" data-name="圖層 1"><polygon class="cls-1" points="191.16 1.12 163.31 1.12 159.14 18.86 187 18.86 191.16 1.12"/><polygon class="cls-1" points="158.27 23.55 154.1 41.29 181.96 41.29 186.13 23.55 158.27 23.55"/><path class="cls-1" d="M265.87,1.12h-63L186,72.92h61.33l11.52-10.79,14.35-61Zm-50.2,52.42,7.77-33h20.12l-7.78,33.05Z"/><polygon class="cls-1" points="560.19 1.12 553.07 31.38 546.05 22.71 549.63 7.54 533.77 7.54 528.55 1.09 499.9 1.09 499.93 1.12 499.88 1.12 482.99 72.92 508.09 72.92 519.34 25.1 531.32 39.9 551.07 39.9 543.3 72.92 568.39 72.92 585.28 1.12 560.19 1.12"/><path class="cls-1" d="M480.48,1.12H423.93L407,72.92h25.09l6.17-26.21h16.89L449,72.92h25.1L487.7,15.2ZM442.86,27.33l1.6-6.84h16.9l-1.61,6.84Z"/><path class="cls-1" d="M405.88,46.71l4.55-19.38H375.08l1.6-6.84H412L416.6,1.12H356.15L339.84,70.41,326.19,53.54H328l11.52-10.79,9.8-41.63H280.28l-16.89,71.8h25.1l5.57-23.68L313.28,73h28.65l-.06-.07h57.84l4.56-19.38H368.91l1.61-6.83ZM297.6,34.18l3.22-13.69h18.85l-4.55,19.37-4.61-5.68Z"/><polygon class="cls-1" points="601.82 53.54 603.43 46.7 638.79 46.7 643.35 27.33 607.99 27.33 609.6 20.49 644.96 20.49 649.52 1.12 614.16 1.12 602.59 1.12 589.06 1.12 572.17 72.92 593.16 72.92 597.26 72.92 632.62 72.92 637.18 53.54 601.82 53.54"/><path class="cls-1" d="M150,20.49l4.56-19.37H94.13L77.83,70.41,64.17,53.54H66L77.51,42.75l9.8-41.63h-69L1.37,72.92h25.1L32,49.24,51.27,73H79.91l0-.07h57.83l4.56-19.38H106.89l1.61-6.83h35.36l4.56-19.38H113.06l1.61-6.84ZM35.58,34.18,38.8,20.49H57.66L53.1,39.86l-4.61-5.68Z"/><path class="cls-1" d="M701.8,53.54l11.52-10.79,9.8-41.63h-69l-16.89,71.8h25.1l5.57-23.68L687.07,73h28.65L700,53.54ZM671.39,34.18l3.22-13.69h18.85l-4.55,19.37-4.61-5.68Z"/></g></g></svg>