<svg xmlns="http://www.w3.org/2000/svg" viewBox="0 0 721.74 71.9"><defs><style>.cls-1{fill:#fff;}</style></defs><g id="圖層_2" data-name="圖層 2"><g id="圖層_1-2" data-name="圖層 1"><polygon class="cls-1" points="189.79 0.03 161.93 0.03 157.77 17.77 185.62 17.77 189.79 0.03"/><polygon class="cls-1" points="156.89 22.47 152.73 40.2 180.58 40.2 184.75 22.47 156.89 22.47"/><path class="cls-1" d="M264.49,0h-63l-16.89,71.8H246L257.48,61,271.83,0Zm-50.2,52.42,7.78-33.05h20.11l-7.77,33.05Z"/><polygon class="cls-1" points="558.82 0.03 551.7 30.29 544.68 21.63 548.25 6.45 532.39 6.45 527.17 0 498.53 0 498.55 0.03 498.51 0.03 481.62 71.83 506.71 71.83 517.96 24.01 529.95 38.81 549.69 38.81 541.92 71.83 567.02 71.83 583.91 0.03 558.82 0.03"/><path class="cls-1" d="M479.1,0H422.55l-16.89,71.8h25.1l6.16-26.21h16.9l-6.17,26.21h25.09l13.58-57.72ZM441.48,26.24l1.61-6.84H460l-1.61,6.84Z"/><path class="cls-1" d="M404.5,45.62l4.56-19.38H373.7l1.61-6.84h35.36L415.23,0H354.77l-16.3,69.29L324.81,52.45h1.83l11.52-10.78L348,0h-69L262,71.83h25.09l5.57-23.68L311.91,71.9h28.64l-.05-.07h57.83l4.56-19.38H367.53l1.61-6.83ZM296.23,33.09l3.22-13.69H318.3l-4.56,19.37-4.6-5.68Z"/><polygon class="cls-1" points="600.45 52.45 602.06 45.62 637.42 45.62 641.98 26.24 606.62 26.24 608.23 19.41 643.58 19.41 648.14 0.03 612.78 0.03 601.21 0.03 587.69 0.03 570.79 71.83 591.79 71.83 595.89 71.83 631.25 71.83 635.81 52.45 600.45 52.45"/><path class="cls-1" d="M148.65,19.4,153.21,0H92.76L76.45,69.32,62.8,52.45h1.82L76.14,41.67,85.94,0h-69L0,71.83H25.1l5.57-23.68L49.89,71.9H78.54l-.06-.07h57.84l4.56-19.38H105.52l1.61-6.83h35.36L147,26.24H111.68l1.61-6.84ZM34.21,33.09,37.43,19.4H56.28L51.72,38.77l-4.6-5.68Z"/><path class="cls-1" d="M700.43,52.45,712,41.67,721.74,0h-69l-16.89,71.8H660.9l5.57-23.68L685.7,71.9h28.64L698.61,52.45ZM670,33.09l3.22-13.69h18.85l-4.56,19.37-4.6-5.68Z"/></g></g></svg>